HIERARCHY
ROOT pelvis
{
  OFFSET 0 100 0
  CHANNELS 6 Xposition Yposition Zposition Zrotation Xrotation Yrotation
  JOINT pelvis_right_femur
  {
    OFFSET -10.78128 -3.44521 -0.5502486
    CHANNELS 3 Zrotation Xrotation Yrotation
    JOINT right_femur_tibia
    {
      OFFSET -0.8047443 -44.0398 -0.1307829
      CHANNELS 3 Zrotation Xrotation Yrotation
      JOINT right_tibia_foot
      {
        OFFSET 3.006224 -47.83518 -5
        CHANNELS 3 Zrotation Xrotation Yrotation
        End Site
        {
          OFFSET 0 -5 15
        }
      }
    }
  }
  JOINT pelvis_left_femur
  {
    OFFSET 10.78128 -3.44521 -0.5502486
    CHANNELS 3 Zrotation Xrotation Yrotation
    JOINT left_femur_tibia
    {
      OFFSET 0.8047443 -44.0398 -0.1307829
      CHANNELS 3 Zrotation Xrotation Yrotation
      JOINT left_tibia_foot
      {
        OFFSET -4.370144 -48.10324 -4.275266
        CHANNELS 3 Zrotation Xrotation Yrotation
        End Site
        {
          OFFSET 0 -5 15
        }
      }
    }
  }
  JOINT pelvis_spine1
  {
    OFFSET 0 6.468898 -3.129235
    CHANNELS 3 Zrotation Xrotation Yrotation
    JOINT spine1
    {
      OFFSET 0 23.15396 4.99043
      CHANNELS 3 Zrotation Xrotation Yrotation
      JOINT spine2
      {
        OFFSET 0 20.79997 -5.064912
        CHANNELS 3 Zrotation Xrotation Yrotation
        JOINT neck
        {
          OFFSET 0 14.38658 9.616178
          CHANNELS 3 Zrotation Xrotation Yrotation
          End Site
          {
            OFFSET 0 20 0
          }
        }
      }
      JOINT right_manubrium
      {
        OFFSET -5.722621 16.35077 3.967754
        CHANNELS 3 Zrotation Xrotation Yrotation
        JOINT right_clavicle
        {
          OFFSET -13.16364 1.694482 -4.693211
          CHANNELS 3 Zrotation Xrotation Yrotation
          JOINT right_humerus
          {
            OFFSET -28.5034 -0.3100689 -2.792744
            CHANNELS 3 Zrotation Xrotation Yrotation
            JOINT right_radius
            {
              OFFSET -25.15693 0.02248979 -1.271978
              CHANNELS 3 Zrotation Xrotation Yrotation
              End Site
              {
                OFFSET -15 0 0
              }
            }
          }
        }
      }
      JOINT left_manubrium
      {
        OFFSET 5.722621 16.35077 3.967754
        CHANNELS 3 Zrotation Xrotation Yrotation
        JOINT left_clavicle
        {
          OFFSET 13.16364 1.694482 -4.693211
          CHANNELS 3 Zrotation Xrotation Yrotation
          JOINT left_humerus
          {
            OFFSET 29.39168 -1.063119 -2.237045
            CHANNELS 3 Zrotation Xrotation Yrotation
            JOINT left_radius
            {
              OFFSET 24.59957 -0.9528479 0.9047498
              CHANNELS 3 Zrotation Xrotation Yrotation
              End Site
              {
                OFFSET 15 -0 -0
              }
            }
          }
        }
      }
    }
  }
}
MOTION
Frames: 7
Frame Time: 0.0416666666667
0 103.5113 0 0.4576649 -1.332995 -0.1691738 4.096155 -17.07372 9.679797 -0 39.5089 -0 -6.273823 -15.8527 -3.389711 -6.587857 10.75053 -23.62648 -0 5.757001 -0 8.602896 -16.29309 27.62358 -3.440639 -3.114392 4.245926 2.487665 9.555574 -7.54026 1.344096 22.37306 7.09474 3.462587 -24.48628 9.442062 6.622511 -19.7659 11.73693 85.27742 35.77068 -18.45242 -0 0 16.09882 -7.101069 7.631959 4.3152 5.471258 -19.22926 -2.094886 -94.54696 27.63845 22.44203 0 0 -14.55238 7.324344 17.22748 5.579363
0.2555513 104.2971 1.369397 0.4584449 -1.664868 -0.335861 3.891363 -16.60061 9.323264 -0 40.13629 -0 -6.601588 -15.36315 -3.321716 -6.496288 10.80154 -23.39268 -0 5.844572 -0 8.526235 -15.96075 27.46187 -3.413064 -3.09386 4.072893 2.42392 9.685799 -7.541656 1.280796 22.51171 7.094878 3.468229 -24.30567 9.320449 6.529236 -19.73559 11.76656 85.46827 35.60547 -18.39751 -0 0 15.79244 -7.541953 7.578131 4.542748 5.371506 -19.33621 -2.309359 -94.189 27.36071 22.02459 0 0 -14.41053 7.553799 17.21221 5.207953
0.607924 104.5991 3.490983 0.2020775 1.68834 -0.2835195 5.662956 -25.63554 9.156109 -0 28.52982 -0 -4.55709 -13.87673 -2.678041 -6.97784 11.58495 -22.25731 -0 5.26564 -0 8.209855 -20.51762 25.73769 -3.406855 -2.474292 5.087234 2.899269 8.733348 -7.54183 1.741282 21.01296 7.270304 3.584404 -25.95903 10.24704 6.097725 -19.17763 11.2471 85.31774 35.44486 -19.64662 -0 0 16.127 -5.955043 8.070418 3.429816 7.192862 -20.08662 -0.8270954 -93.66982 26.41685 21.18544 0 0 -18.39357 9.343522 15.89499 3.65681
0.9629883 104.6746 6.150237 -0.09290344 3.206489 -0.006381584 6.549216 -29.71315 8.541169 -0 23.72212 -0 -4.511067 -11.18377 -2.094307 -6.96212 12.20832 -21.03255 -0 5.863111 -0 7.522514 -22.15707 24.15627 -3.242497 -2.191875 5.148123 3.083168 8.574397 -7.717545 1.751778 20.3197 7.442936 3.809124 -26.63706 10.35625 5.90989 -18.77097 11.09705 85.72842 35.66732 -20.5372 -0 0 15.463 -5.859618 8.28184 3.338023 7.953577 -20.83248 -0.3673896 -92.87647 25.52072 20.26095 0 0 -20.56127 10.39673 15.04764 2.566948
1.276955 104.7206 9.713344 -0.7891651 5.029612 0.5921913 7.898067 -34.26717 7.553603 -0 18.48942 -0 -5.399574 -6.551668 -1.177463 -6.592818 13.20117 -18.94907 -0 8.09996 -0 5.721036 -23.34218 21.26489 -2.673467 -1.883418 4.79029 3.277728 8.595059 -8.120735 1.570644 19.47143 7.752816 4.21535 -27.36457 10.21474 5.712203 -18.13174 10.98703 86.65761 36.22447 -21.95482 -0 0 13.98905 -6.22879 8.636902 3.545407 8.693749 -21.98274 -0.02308753 -91.71667 24.32049 19.01037 0 0 -23.34773 11.42194 13.91497 1.475395
1.538587 104.8451 14.07448 -1.64636 5.967828 1.377671 9.046062 -36.30937 6.739842 -0 15.89489 -0 -6.830562 -2.928003 -0.4362907 -5.928005 13.93607 -17.03341 -0 11.70557 -0 3.426145 -22.83767 18.35168 -1.795074 -1.703592 4.147261 3.347816 8.783042 -8.513023 1.283687 18.99003 8.034655 4.528275 -27.63199 9.903732 5.540944 -17.57328 10.96595 87.61846 36.61371 -23.0551 -0 0 12.51142 -7.003925 9.047842 3.956561 8.861777 -22.80994 -0.1005972 -90.86739 23.46383 18.17229 0 0 -24.91121 11.74433 13.15771 1.086535
1.764775 105.253 19.22595 -2.67411 6.148484 2.184092 10.12809 -36.05036 6.054071 -0 15.19409 -0 -8.559219 -0.5621031 0.1448874 -4.973334 14.12874 -15.10474 -0 17.67377 -0 0.6478934 -20.47427 15.23277 -0.5106059 -1.595172 3.37877 3.310892 9.101332 -8.849349 0.9137248 18.77518 8.299194 4.724755 -27.51014 9.496126 5.341744 -17.07174 11.01661 88.51824 36.70747 -23.79752 -0 0 11.18249 -8.150715 9.617068 4.500006 8.495891 -23.27957 -0.5571696 -90.33568 22.67834 17.81953 0 0 -25.20747 11.59809 12.59417 1.149055
